<svg xmlns="http://www.w3.org/2000/svg" width="161.391" height="61" viewBox="0 0 161.391 61">
  <g id="Group_172" data-name="Group 172" transform="translate(-710.046 -445.526)">
    <path id="Path_170" data-name="Path 170" d="M710.046,552.5h4.035v22.237h13.557v3.844H710.046Z" transform="translate(0 -72.439)" fill="#195236"/>
    <path id="Path_171" data-name="Path 171" d="M849.655,556.732H853.5v7.418h.192A8.467,8.467,0,0,1,855.113,563a7.739,7.739,0,0,1,4.151-1.153c4.612,0,7.687,3.036,7.687,8.071v11.531h-3.843V569.916a4.577,4.577,0,0,0-4.612-4.612,4.77,4.77,0,0,0-5,4.612v11.531h-3.843Z" transform="translate(-94.538 -75.304)" fill="#195236"/>
    <path id="Path_172" data-name="Path 172" d="M918.111,573.758h3.843v11.53a4.577,4.577,0,0,0,4.612,4.612,4.77,4.77,0,0,0,5-4.612v-11.53h3.843v19.217h-3.459l-.384-1.922h-.192a8.462,8.462,0,0,1-1.422,1.153,7.849,7.849,0,0,1-4.151,1.153c-4.612,0-7.687-3.036-7.687-8.071Z" transform="translate(-140.893 -86.834)" fill="#195236"/>
    <path id="Path_173" data-name="Path 173" d="M999.176,582.561c0-4-2.5-6.534-5.573-6.534s-5.573,2.537-5.573,6.534,2.5,6.534,5.573,6.534,5.573-2.536,5.573-6.534m0,7.495h-.192a7.348,7.348,0,0,1-5.957,2.5c-5.035,0-8.84-3.844-8.84-9.993s3.805-9.993,8.84-9.993a7.193,7.193,0,0,1,5.957,2.69h.192l.384-2.306h3.459V592.17H999.56Z" transform="translate(-185.637 -86.028)" fill="#195236"/>
    <path id="Path_174" data-name="Path 174" d="M1058,572.952h3.459l.384,1.922h.192a8.485,8.485,0,0,1,1.422-1.153,7.738,7.738,0,0,1,4.151-1.153c4.612,0,7.687,3.036,7.687,8.071v11.53h-3.843v-11.53a4.577,4.577,0,0,0-4.612-4.612,4.77,4.77,0,0,0-5,4.612v11.53H1058Z" transform="translate(-235.62 -86.028)" fill="#195236"/>
    <path id="Path_175" data-name="Path 175" d="M1166.608,582.561c0-4-2.5-6.534-5.573-6.534s-5.573,2.537-5.573,6.534,2.5,6.534,5.573,6.534,5.573-2.536,5.573-6.534m0,7.495h-.192a7.348,7.348,0,0,1-5.957,2.5c-5.035,0-8.84-3.844-8.84-9.993s3.805-9.993,8.84-9.993a7.193,7.193,0,0,1,5.957,2.69h.192l.385-2.306h3.459V592.17h-3.459Z" transform="translate(-299.016 -86.028)" fill="#195236"/>
    <path id="Path_176" data-name="Path 176" d="M812.182,562.229h-4.42v-5.5h-3.843v5.5h-3.075v3.651h3.075v11.53c0,2.5,1.5,4.036,4.228,4.036h4.036v-3.459h-4.42V565.88h4.42Z" transform="translate(-61.485 -75.304)" fill="#195236"/>
    <rect id="Rectangle_304" data-name="Rectangle 304" width="3.843" height="19.217" transform="translate(732.056 486.924)" fill="#195236"/>
    <rect id="Rectangle_305" data-name="Rectangle 305" width="4.228" height="4.228" transform="translate(727.481 482.349)" fill="#139042"/>
    <rect id="Rectangle_306" data-name="Rectangle 306" width="3.843" height="19.217" transform="translate(844.724 486.924)" fill="#195236"/>
    <rect id="Rectangle_307" data-name="Rectangle 307" width="4.228" height="4.228" transform="translate(840.149 482.349)" fill="#139042"/>
    <path id="Path_177" data-name="Path 177" d="M739.214,465.977h3.459l.384,1.922h.192a8.461,8.461,0,0,1,1.422-1.153,7.74,7.74,0,0,1,4.151-1.153c4.612,0,7.687,3.036,7.687,8.071v11.53h-3.843v-11.53a4.577,4.577,0,0,0-4.612-4.612,4.77,4.77,0,0,0-5,4.612v11.53h-3.843Z" transform="translate(-19.752 -13.589)" fill="#195236"/>
    <path id="Path_178" data-name="Path 178" d="M880.334,474.049c-.423-3.075-2.5-5.189-5.573-5.189-3.267,0-5.189,2.114-5.765,5.189Zm3.075,5.573a9.1,9.1,0,0,1-8.647,5.957c-5.573,0-9.609-4.036-9.609-9.993s4.036-9.993,9.609-9.993a9.152,9.152,0,0,1,9.224,9.417,11,11,0,0,1-.115,1.384l-.077.538H869c.423,3.267,2.691,5.381,5.765,5.381a5.048,5.048,0,0,0,4.612-2.691Z" transform="translate(-105.032 -13.589)" fill="#195236"/>
    <path id="Path_179" data-name="Path 179" d="M935.667,479.43c0,1.153,1.345,2.883,4.42,2.883,2.882,0,4.036-1.307,4.036-2.5,0-1.345-.73-2.152-2.883-2.5l-3.459-.577c-3.69-.615-5.573-2.306-5.573-5.573,0-3.075,2.5-5.573,7.687-5.573,5.573,0,7.879,3.844,7.879,5.957H943.93c0-1.153-1.153-2.69-4.036-2.69-2.729,0-3.844,1.115-3.844,2.306s1.153,1.96,2.883,2.306l3.459.577c3.728.615,5.573,2.536,5.573,5.765,0,3.075-2.5,5.765-7.879,5.765-6.15,0-8.263-4.036-8.263-6.15Z" transform="translate(-150.179 -13.589)" fill="#195236"/>
    <path id="Path_180" data-name="Path 180" d="M997.926,455.254h-4.42v-5.5h-3.844v5.5h-3.075V458.9h3.075v11.53c0,2.5,1.5,4.036,4.228,4.036h4.036v-3.459h-4.42V458.9h4.42Z" transform="translate(-187.263 -2.865)" fill="#195236"/>
    <path id="Path_181" data-name="Path 181" d="M814.4,466.784l-5.426,15.674h-1.363l-5.426-15.674h-4.036L804.874,486h6.833l6.726-19.217Z" transform="translate(-59.659 -14.395)" fill="#195236"/>
    <rect id="Rectangle_308" data-name="Rectangle 308" width="4.035" height="26.08" transform="translate(710.046 445.526)" fill="#195236"/>
  </g>
</svg>
